PathFileType	3	(X/Y/Z)	running_2__view1_aligned.trc
DataRate	CameraRate	NumFrames	NumMarkers	Units	OrigDataRate	OrigDataStartFrame	OrigNumFrames
100.0	100.0	18	19	mm	100.0	3455	6354
Frame#	Time	pelvis			neck			head			hip_left			hip_right			knee_left			knee_right			ankle_left			ankle_right			heel_left			heel_right			toe_left			toe_right			shoulder_left			shoulder_right			elbow_left			elbow_right			wrist_left			wrist_right			
		X1	Y1	Z1	X2	Y2	Z2	X3	Y3	Z3	X4	Y4	Z4	X5	Y5	Z5	X6	Y6	Z6	X7	Y7	Z7	X8	Y8	Z8	X9	Y9	Z9	X10	Y10	Z10	X11	Y11	Z11	X12	Y12	Z12	X13	Y13	Z13	X14	Y14	Z14	X15	Y15	Z15	X16	Y16	Z16	X17	Y17	Z17	X18	Y18	Z18	X19	Y19	Z19	
3455	34.54000	78.268773	956.898248	139.342092	48.103346	1485.345512	303.846694	74.191506	1553.165906	457.307195	153.791109	961.416968	139.265330	2.746194	952.379495	139.419079	152.340072	545.290798	269.598762	-52.100825	531.465028	240.128605	162.590493	149.240197	160.909887	-103.249799	249.612265	-27.223465	164.906763	102.911236	122.865706	-103.568125	236.195844	-79.395382	143.447271	89.235252	338.373136	-116.970327	100.983860	59.558354	212.037809	1475.999789	249.656015	-119.735783	1434.519855	265.474615	291.188055	1237.275796	136.642456	-198.688678	1186.519163	180.638391	221.298536	1118.657468	338.025035	-143.097336	1073.263088	369.090506
3456	34.55000	79.223027	957.480274	139.168492	48.573254	1486.027731	304.044337	74.411229	1553.682264	457.815927	154.788488	962.137648	139.242869	3.657290	952.822860	139.094372	152.224374	545.178485	262.545440	-50.243397	532.798994	243.483354	162.167634	146.815211	154.729999	-101.241045	250.247877	-19.724709	164.272961	100.156001	116.667053	-101.594410	236.524211	-71.410837	143.742581	86.826705	333.283301	-114.842821	103.166843	67.639393	212.940204	1476.211654	251.180366	-119.248122	1436.245046	264.007635	294.376011	1237.260173	141.534834	-199.534681	1190.093674	175.775704	220.772382	1122.540585	343.925640	-144.938270	1073.673004	362.628615
3457	34.56000	80.177282	958.062299	138.994891	49.043162	1486.709951	304.241981	74.630952	1554.198621	458.324659	155.785867	962.858329	139.220409	4.568387	953.266225	138.769665	152.108676	545.066173	255.492119	-48.385969	534.132961	246.838102	161.744775	144.390224	148.550111	-99.232292	250.883489	-12.225954	163.639158	97.400766	110.468401	-99.620695	236.852577	-63.426292	144.037891	84.418158	328.193466	-112.715316	105.349825	75.720431	213.842599	1476.423519	252.704718	-118.760460	1437.970238	262.540656	297.563967	1237.244550	146.427213	-200.380685	1193.668184	170.913017	220.246227	1126.423702	349.826244	-146.779204	1074.082921	356.166724
3458	34.57000	81.131536	958.644324	138.821290	49.513070	1487.392170	304.439624	74.850676	1554.714978	458.833391	156.783246	963.579009	139.197948	5.479483	953.709590	138.444957	151.992978	544.953861	248.438797	-46.528541	535.466927	250.192851	161.321917	141.965238	142.370223	-97.223538	251.519101	-4.727198	163.005356	94.645532	104.269748	-97.646979	237.180943	-55.441747	144.333201	82.009611	323.103631	-110.587811	107.532808	83.801470	214.744994	1476.635383	254.229069	-118.272799	1439.695429	261.073676	300.751923	1237.228927	151.319591	-201.226688	1197.242695	166.050330	219.720073	1130.306819	355.726848	-148.620139	1074.492837	349.704833
3459	34.58000	79.463822	957.787427	140.641570	47.360663	1486.793901	306.556686	71.625298	1554.455040	461.059122	155.188984	962.668723	140.721099	3.738318	952.906083	140.562367	150.626873	542.422769	243.027795	-46.436814	535.496011	257.492580	157.629588	143.531610	131.275422	-96.626028	249.086624	8.878292	158.738658	97.554083	92.811920	-97.288019	233.865645	-41.172999	141.282079	80.153181	307.590166	-108.513839	108.256722	99.707840	213.309142	1475.924230	257.329051	-120.341394	1439.261348	261.738263	301.885706	1236.040370	157.070416	-204.565958	1198.149550	162.869196	219.537923	1129.511223	361.169040	-155.080396	1070.013314	344.735975
3460	34.59000	77.796109	956.930530	142.461850	45.208256	1486.195633	308.673748	68.399921	1554.195101	463.284852	153.594721	961.758437	142.244249	1.997154	952.102575	142.679777	149.260769	539.891677	237.616792	-46.345088	535.525094	264.792310	153.937259	145.097983	120.180622	-96.028519	246.654147	22.483782	154.471960	100.462635	81.354091	-96.929059	230.550347	-26.904251	138.230957	78.296751	292.076701	-106.439868	108.980637	115.614211	211.873290	1475.213077	260.429033	-122.409990	1438.827266	262.402849	303.019489	1234.851812	162.821240	-207.905229	1199.056405	159.688063	219.355772	1128.715628	366.611232	-161.540652	1065.533791	339.767117
3461	34.60000	76.128396	956.073633	144.282130	43.055848	1485.597364	310.790809	65.174544	1553.935163	465.510582	152.000459	960.848151	143.767399	0.255989	951.299068	144.797187	147.894665	537.360585	232.205790	-46.253361	535.554178	272.092040	150.244930	146.664355	109.085821	-95.431009	244.221670	36.089272	150.205262	103.371187	69.896263	-96.570099	227.235049	-12.635503	135.179836	76.440322	276.563236	-104.365897	109.704551	131.520581	210.437439	1474.501924	263.529014	-124.478585	1438.393185	263.067436	304.153272	1233.663255	168.572064	-211.244499	1199.963259	156.506930	219.173622	1127.920032	372.053424	-168.000909	1061.054268	334.798259
3462	34.61000	74.460682	955.216737	146.102410	40.903441	1484.999095	312.907871	61.949166	1553.675224	467.736312	150.406197	959.937864	145.290550	-1.485175	950.495560	146.914597	146.528560	534.829493	226.794787	-46.161634	535.583261	279.391769	146.552601	148.230727	97.991020	-94.833499	241.789193	49.694762	145.938565	106.279739	58.438434	-96.211139	223.919752	1.633245	132.128714	74.583892	261.049771	-102.291926	110.428466	147.426951	209.001587	1473.790771	266.628996	-126.547181	1437.959103	263.732022	305.287055	1232.474698	174.322888	-214.583770	1200.870114	153.325797	218.991471	1127.124436	377.495616	-174.461166	1056.574745	329.829401
3463	34.62000	72.792969	954.359840	147.922690	38.751033	1484.400827	315.024932	58.723789	1553.415285	469.962042	148.811935	959.027578	146.813700	-3.226340	949.692053	149.032006	145.162456	532.298401	221.383785	-46.069908	535.612345	286.691499	142.860272	149.797100	86.896219	-94.235990	239.356716	63.300252	141.671867	109.188291	46.980606	-95.852179	220.604454	15.901993	129.077592	72.727462	245.536306	-100.217954	111.152380	163.333322	207.565735	1473.079618	269.728978	-128.615776	1437.525021	264.396609	306.420838	1231.286140	180.073712	-217.923040	1201.776969	150.144664	218.809321	1126.328841	382.937808	-180.921423	1052.095222	324.860543
3464	34.63000	71.125256	953.502943	149.742971	36.598626	1483.802558	317.141994	55.498412	1553.155347	472.187772	147.217673	958.117292	148.336850	-4.967504	948.888545	151.149416	143.796352	529.767309	215.972782	-45.978181	535.641428	293.991229	139.167944	151.363472	75.801419	-93.638480	236.924238	76.905743	137.405169	112.096843	35.522777	-95.493219	217.289156	30.170741	126.026470	70.871032	230.022841	-98.143983	111.876295	179.239692	206.129883	1472.368465	272.828960	-130.684371	1437.090940	265.061196	307.554621	1230.097583	185.824537	-221.262310	1202.683824	146.963531	218.627171	1125.533245	388.379999	-187.381680	1047.615699	319.891685
3465	34.64000	69.457542	952.646046	151.563251	34.446218	1483.204290	319.259056	52.273034	1552.895408	474.413503	145.623411	957.207006	149.860001	-6.708669	948.085038	153.266826	142.430247	527.236217	210.561780	-45.886455	535.670512	301.290958	135.475615	152.929845	64.706618	-93.040970	234.491761	90.511233	133.138471	115.005395	24.064949	-95.134259	213.973858	44.439489	122.975349	69.014602	214.509376	-96.070012	112.600210	195.146062	204.694032	1471.657312	275.928941	-132.752967	1436.656858	265.725782	308.688404	1228.909025	191.575361	-224.601581	1203.590679	143.782398	218.445020	1124.737649	393.822191	-193.841937	1043.136176	314.922827
3466	34.65000	67.789829	951.789149	153.383531	32.293811	1482.606021	321.376117	49.047657	1552.635470	476.639233	144.029148	956.296720	151.383151	-8.449833	947.281531	155.384236	141.064143	524.705125	205.150777	-45.794728	535.699596	308.590688	131.783286	154.496217	53.611817	-92.443461	232.059284	104.116723	128.871774	117.913947	12.607120	-94.775298	210.658560	58.708237	119.924227	67.158172	198.995911	-93.996040	113.324124	211.052433	203.258180	1470.946159	279.028923	-134.821562	1436.222777	266.390369	309.822187	1227.720468	197.326185	-227.940851	1204.497534	140.601265	218.262870	1123.942054	399.264383	-200.302194	1038.656653	309.953969
3467	34.66000	66.122116	950.932252	155.203811	30.141403	1482.007753	323.493179	45.822280	1552.375531	478.864963	142.434886	955.386433	152.906301	-10.190998	946.478023	157.501646	139.698039	522.174033	199.739775	-45.703001	535.728679	315.890418	128.090957	156.062589	42.517016	-91.845951	229.626807	117.722213	124.605076	120.822499	1.149292	-94.416338	207.343262	72.976985	116.873105	65.301742	183.482446	-91.922069	114.048039	226.958803	201.822328	1470.235006	282.128905	-136.890158	1435.788695	267.054955	310.955970	1226.531911	203.077009	-231.280122	1205.404388	137.420132	218.080719	1123.146458	404.706575	-206.762450	1034.177130	304.985111
3468	34.67000	64.454402	950.075356	157.024091	27.988996	1481.409484	325.610240	42.596902	1552.115593	481.090693	140.840624	954.476147	154.429452	-11.932162	945.674516	159.619055	138.331934	519.642941	194.328772	-45.611275	535.757763	323.190148	124.398628	157.628962	31.422216	-91.248441	227.194330	131.327703	120.338378	123.731051	-10.308537	-94.057378	204.027964	87.245733	113.821984	63.445312	167.968981	-89.848098	114.771953	242.865173	200.386476	1469.523853	285.228886	-138.958753	1435.354614	267.719542	312.089752	1225.343353	208.827833	-234.619392	1206.311243	134.238999	217.898569	1122.350862	410.148767	-213.222707	1029.697607	300.016253
3469	34.68000	63.305872	948.945537	157.337752	25.993863	1480.342870	326.014960	39.731044	1551.326605	481.546092	139.776471	953.217373	154.671039	-13.165036	944.673656	160.004756	137.619950	518.478889	192.876371	-45.830739	535.027798	326.578278	122.213224	161.544021	20.541722	-89.560507	222.890098	141.377126	117.773146	129.339917	-22.130553	-92.282510	198.437318	97.950729	112.107479	61.840381	152.374655	-88.157368	114.261066	256.505221	198.489080	1469.132059	286.321077	-140.663281	1433.959595	266.924219	312.005389	1226.278537	209.607458	-236.281362	1205.609927	131.800555	218.289675	1122.730071	410.526891	-217.760678	1026.438123	297.594603
3470	34.69000	62.157342	947.815718	157.651413	23.998730	1479.276257	326.419680	36.865186	1550.537617	482.001490	138.712317	951.958600	154.912626	-14.397909	943.672796	160.390457	136.907965	517.314837	191.423970	-46.050204	534.297833	329.966408	120.027820	165.459081	9.661229	-87.872572	218.585866	151.426548	115.207914	134.948782	-33.952569	-90.507641	192.846672	108.655725	110.392975	60.235449	136.780329	-86.466638	113.750179	270.145269	196.591684	1468.740265	287.413267	-142.367808	1432.564576	266.128896	311.921026	1227.213720	210.387083	-237.943331	1204.908611	129.362110	218.680782	1123.109279	410.905015	-222.298649	1023.178639	295.172953
3471	34.70000	61.008812	946.685899	157.965073	22.003597	1478.209643	326.824400	33.999327	1549.748630	482.456889	137.648163	950.699826	155.154214	-15.630783	942.671937	160.776158	136.195980	516.150786	189.971569	-46.269669	533.567868	333.354538	117.842416	169.374141	-1.219265	-86.184637	214.281633	161.475970	112.642682	140.557648	-45.774585	-88.732772	187.256026	119.360720	108.678471	58.630518	121.186003	-84.775909	113.239293	283.785317	194.694287	1468.348471	288.505458	-144.072335	1431.169557	265.333574	311.836663	1228.148903	211.166708	-239.605301	1204.207295	126.923665	219.071888	1123.488488	411.283139	-226.836620	1019.919155	292.751304
3472	34.71000	59.860281	945.556079	158.278734	20.008464	1477.143029	327.229120	31.133469	1548.959642	482.912288	136.584010	949.441052	155.395801	-16.863657	941.671077	161.161859	135.483995	514.986734	188.519168	-46.489134	532.837904	336.742668	115.657012	173.289200	-12.099758	-84.496703	209.977401	171.525392	110.077450	146.166514	-57.596601	-86.957903	181.665380	130.065716	106.963966	57.025587	105.591677	-83.085179	112.728406	297.425365	192.796891	1467.956677	289.597648	-145.776863	1429.774538	264.538251	311.752300	1229.084086	211.946333	-241.267271	1203.505978	124.485220	219.462995	1123.867696	411.661264	-231.374591	1016.659671	290.329654
